<svg fill="none" height="40" viewBox="0 0 40 40" width="40" xmlns="http://www.w3.org/2000/svg"><circle cx="20" cy="20" fill="#fff" r="20"/><path clip-rule="evenodd" d="m20 40c11.0457 0 20-8.9543 20-20s-8.9543-20-20-20-20 8.9543-20 20 8.9543 20 20 20zm0-1.6c10.162 0 18.4-8.238 18.4-18.4 0-10.16204-8.238-18.4-18.4-18.4-10.16204 0-18.4 8.23796-18.4 18.4 0 10.162 8.23796 18.4 18.4 18.4z" fill="#000" fill-rule="evenodd"/><circle cx="20" cy="20" fill="#bce1e5" r="16"/><g stroke="#000" stroke-width="1.6"><path d="m30.7454 18.3319c0-1.6519-1.6305-3.6747-3.9251-3.6747s-3.9854 1.1197-3.9854 3.6747c0 2.0067 3.9854 5.4805 3.9854 5.4805 1.2994.7543-3.4043 1.1943-5.9186 1.32l1.9332 4.3372c-1.9644.88-6.5721 1.8103-9.2875-1.5086"/><path d="m11.7317 18.3324c0-1.3237 1.2233-3.6745 3.9853-3.6745 2.7621 0 3.9251 2.0226 3.9251 3.6745"/></g></svg>