<svg fill="#c08a43" height="18" viewBox="0 0 16 18" width="16" xmlns="http://www.w3.org/2000/svg" role="img" aria-label="Pinned review"><path fill="var(--junipButtonColor)" d="m12.9578 11.5c.5685 0 1.039-.4758.9741-1.0406-.1192-1.03736-.437-1.44208-1.642-2.66601-.1849-.18781-.2899-.44124-.2899-.70479v-5.0886c0-.55228-.4477-1-1-1h-6c-.55228 0-1 .44772-1 1v5.0886c0 .26355-.10502.51698-.28992.70479-1.20501 1.22393-1.52278 1.62865-1.64199 2.66601-.06491.5648.40563 1.0406.97413 1.0406h3.95778v4.5c0 .5523.44772 1 1 1s1-.4477 1-1v-4.5z"></path></svg>