<svg width="140" height="48" viewBox="0 0 140 48" fill="none" xmlns="http://www.w3.org/2000/svg">
<g clip-path="url(#clip0_827_946)">
<path d="M136.648 27.9622C133.86 31.2355 131.796 35.8244 128.024 38.3311C122.823 41.7866 123.933 31.8222 128.388 27.131C129.296 26.1755 130.906 25.1688 131.381 23.9266C132.584 20.7977 129.5 17.8622 126.417 18.131C124.299 18.3133 123.827 19.4822 122.237 20.1422C120.202 20.9911 118.821 19.5533 117.118 18.7311C110.479 15.5222 105.069 19.4422 101.185 24.6777C97.2557 29.9733 88.0924 44.0066 86.341 37.4244C84.7361 31.3911 93.6441 16.7066 94.8983 15.3555C95.6375 14.5622 95.9816 14.4555 97.0671 14.7044C100.439 15.4866 103.336 16.6155 106.783 14.9955C110.386 13.3022 109.964 8.91105 106.079 9.47105C103.78 9.80216 102.892 11.7066 99.9861 11.5066C99.42 11.4688 98.7075 11.4466 98.8185 10.7511C98.925 10.0822 101.118 8.78438 101.713 8.26883C105.891 4.66438 102.903 0.493274 98.9938 0.0577187C96.9228 -0.173392 95.2646 0.0510521 91.1225 4.19994C90.3455 4.97772 89.6574 5.84661 88.8649 6.60883C88.452 7.00439 88.0081 7.39327 87.4887 7.64883C86.2678 8.2555 85.8194 7.51772 85.9215 6.37105C85.977 5.76216 86.2722 3.20661 83.9991 1.43772C81.0601 -0.853392 77.7971 0.639941 77.6528 0.706608C73.9058 2.41105 68.9956 10.5822 67.1154 14.2533C63.1598 21.9733 61.5615 29.0466 61.0576 30.8266C60.7091 32.0622 59.1486 35.3733 53.4792 37.9577C50.7556 39.1977 45.1284 39.4199 43.8809 36.2466C42.6178 33.0333 46.66 34.2288 49.0619 34.3666C60.7047 35.0377 62.7868 19.6133 52.4737 17.5911C44.7821 16.0844 39.0195 20.6755 36.0006 27.3422C34.995 29.5644 34.3269 31.9577 34.156 34.3977C34.0894 35.351 34.136 36.3066 33.6121 37.1488C31.7652 40.1199 27.7718 40.8488 28.107 36.0799C28.5665 29.5355 35.4568 17.6422 40.0184 12.8911C41.5834 11.2622 44.9286 9.36216 45.67 7.3955C46.9886 3.9155 43.3792 0.897719 40.1472 0.753274C33.2703 0.44883 28.1536 12.1422 26.087 18.3177C25.5964 19.7866 24.0115 20.4177 22.5997 20.0044C21.1746 19.5888 19.9737 18.5977 18.5131 18.2777C8.6328 16.1111 1.656 28.9644 0.190933 36.9155C-1.3385 45.2177 6.64387 51.8155 14.493 45.0355C15.6917 43.9999 16.5441 42.4888 17.5652 41.5688C18.4931 40.7377 19.4787 40.8866 19.8871 42.1133C23.6164 53.3377 33.0816 45.1733 33.8385 44.5466C34.3513 44.1177 34.8352 43.5688 35.3924 43.2022C36.1582 42.6955 36.6221 43.7866 37.0461 44.2288C37.5234 44.7222 38.0517 45.1666 38.6222 45.5488C39.741 46.2955 41.024 46.7866 42.3603 46.9577C45.9164 47.4111 49.5902 46.5088 52.8533 45.1422C54.1185 44.6111 55.3461 43.9933 56.5226 43.2866C57.0908 42.9466 57.6502 42.5844 58.1919 42.1999C58.6181 41.8977 59.213 41.2222 59.7457 41.1577C60.3073 41.0888 60.294 42.2866 60.3917 42.6688C60.5515 43.3044 60.769 43.9244 61.0665 44.5088C61.6503 45.6466 62.5537 46.611 63.7524 47.0955C67.6193 48.6666 71.9923 46.2933 74.6871 43.5933C76.3054 41.9711 76.625 40.8177 77.3664 40.8355C78.0479 40.851 78.3076 42.7733 78.5762 43.4088C80.9403 48.9622 87.2622 47.9755 91.2468 44.8866C92.2168 44.1355 94.6342 41.4955 94.996 41.0066C95.491 40.3422 95.7374 39.8399 96.1525 39.9044C96.743 39.9911 96.7519 41.0688 96.8673 41.4911C97.0449 42.1533 97.8085 44.9466 100.292 46.3177C104.308 48.5355 108.352 46.9711 111.411 44.0066C112.717 42.7422 114.086 40.6266 115.058 40.6266C115.775 40.6266 116.097 41.9155 116.359 42.6266C117.835 46.6177 120.934 48.2466 125.099 47.1044C132.155 45.1666 138.815 32.2177 139.838 29.7777C140.635 27.8755 138.411 25.8999 136.653 27.9644L136.648 27.9622ZM48.5646 23.1133C51.4881 21.6844 51.992 23.8333 52.0386 24.0955C53.0286 29.5488 44.2738 31.6177 44.3093 28.3511C44.327 26.7866 47.1928 23.7844 48.5646 23.1133ZM18.6862 30.1533C9.78487 47.1466 2.04668 36.3799 12.6906 26.3533C16.9459 22.3444 21.6297 24.5333 18.6862 30.1533ZM85.2666 12.6155C84.7628 13.8466 83.9659 15.0888 83.4242 16.3177C78.13 28.3688 80.4097 31.8955 72.4807 37.7799C69.1843 40.2266 67.9034 38.4711 68.1521 34.8711C68.3452 32.0955 69.4928 29.3488 70.6027 26.8355C71.9634 23.7622 73.5661 20.7888 75.3664 17.9511C79.3132 11.7244 81.9902 10.3355 84.1146 10.3022C86.7117 10.2599 85.4686 12.1155 85.2644 12.6155H85.2666ZM116.848 29.9933C107.946 46.9866 100.208 36.2199 110.852 26.1933C115.107 22.1844 119.791 24.3733 116.848 29.9933Z" fill="#302952"/>
<path d="M135.54 46.5711V45.0733H135.765L136.311 45.9844L136.857 45.0733H137.081V46.5711H136.823V45.5955L136.395 46.3266H136.229L135.802 45.5955V46.5711H135.543H135.54ZM134.473 46.5711V45.3266H133.958V45.0755H135.256V45.3266H134.744V46.5711H134.473Z" fill="#302952"/>
</g>
<defs>
<clipPath id="clip0_827_946">
<rect width="140" height="48" fill="white"/>
</clipPath>
</defs>
</svg>
