<svg xmlns="http://www.w3.org/2000/svg" fill="#fff" viewBox="0 0 15 15"><path d="m5.95231 1.02134c.63809-.695118 1.73442-.695119 2.37251 0l.92281 1.00527c.27874.30365.66331.48885 1.07447.51745l1.3613.0947c.9414.06549 1.6249.92263 1.4793 1.85491l-.2106 1.34825c-.0636.40725.0314.82339.2654 1.16271l.7747 1.12337c.5357.77677.2917 1.84561-.5279 2.313l-1.1855.676c-.358.2042-.6241.5379-.7435.9324l-.3953 1.3061c-.2733.9032-1.26104 1.3788-2.13754 1.0294l-1.26759-.5053c-.38288-.1526-.80972-.1526-1.19261 0l-1.26759.5053c-.8765.3494-1.86425-.1262-2.13756-1.0294l-.39525-1.3061c-.11938-.3945-.38551-.7282-.74357-.9324l-1.185417-.676c-.81967484-.46739-1.063631-1.53623-.527934-2.313l.774721-1.12337c.23402-.33932.329-.75546.26538-1.16271l-.21059-1.34825c-.145617-.93228.53793-1.78942 1.47924-1.85491l1.36131-.0947c.4112-.0286.79577-.2138 1.07451-.51745z" fill="#A5DCE8"/><path d="m4.15111 6.86217-.93053.89086 2.89519 3.02437 4.88523-4.67706-.8908-.93053-3.95465 3.78605z" fill="#fff"/></svg>