<svg xmlns="http://www.w3.org/2000/svg" fill="none" viewBox="0 0 80 80" height="80" width="80">
<path fill="#A4DBE8" d="M24.2993 3.17802C38.4725 -2.86567 55.4786 -0.172785 66.774 10.3128L58.356 18.7366L58.5913 24.22L69.6929 13.2513C78.8284 23.0837 82.1139 37.4024 78.6558 50.387C74.8609 64.6278 63.1573 75.9175 48.7329 79.0716C36.1299 81.8273 22.6824 78.4067 13.2027 69.6722L20.1284 62.7395L20.3628 56.8792L10.4107 66.7005C10.2284 66.7991 10.0273 66.5054 9.89895 66.3714C9.13067 65.5601 8.30232 64.4286 7.63821 63.5149C-7.49461 42.7092 0.787773 13.204 24.2993 3.17802ZM25.4781 23.1058C25.4557 23.8333 25.5061 24.5686 25.482 25.2962C25.0801 37.4025 24.5014 49.47 24.2652 61.5745C24.2224 63.7459 24.6246 65.0224 27.0093 65.3499C35.9497 65.2513 44.9311 65.5302 53.8492 65.2083C56.3454 64.3951 55.7594 62.2178 55.7036 60.1858C55.6664 58.835 55.6483 57.484 55.6148 56.1351H59.2886C61.0986 56.1349 63.3812 53.8872 63.4947 52.0618L63.5113 33.7679C63.249 32.4655 62.6017 31.3249 61.5044 30.5657C59.9604 29.4976 58.652 29.6183 56.8736 29.6145C56.1891 29.6127 55.4279 29.5512 54.7769 29.7112L54.5913 23.1058H25.4781ZM39.7779 30.7552C40.8158 30.5896 41.6553 31.4365 41.6665 32.4524L41.6626 56.3655C41.3855 58.5444 38.4721 58.3681 38.4048 56.1839L38.4087 32.3636C38.4664 31.5765 38.9725 30.8836 39.7798 30.7552H39.7779ZM46.3824 31.9671C47.437 31.7867 48.2735 32.4097 48.3628 33.4759L48.3599 55.2513C48.1161 57.4207 45.175 57.0449 45.1206 55.1585C45.1076 54.7231 45.2026 54.1235 45.2007 53.6731C45.1561 47.3482 45.0688 40.9954 45.1841 34.6761C45.2027 33.6508 44.9667 32.209 46.3824 31.9671ZM32.8931 31.9651C34.1209 31.7102 34.9394 32.5754 34.9673 33.7552V55.1585C34.7308 57.3222 31.7809 57.1972 31.7046 55.0667L31.7085 33.4798C31.7048 32.8751 32.2997 32.0882 32.8911 31.9651H32.8931ZM55.5679 51.762L55.5659 51.7601H55.5679V51.762ZM55.7574 33.9876C56.174 33.9876 57.1104 34.0381 57.5122 34.0921C58.3399 34.2058 59.1005 35.0615 59.147 35.8987L59.1392 50.0315C59.0945 50.7126 58.0867 51.76 57.4263 51.7601H55.5679L54.8687 34.1331C55.1476 34.1293 55.4933 33.9877 55.7574 33.9876ZM34.9283 14.261C33.9572 12.6758 32.1062 11.8519 30.4693 13.0726C29.7049 13.642 29.4107 14.8179 28.6704 15.2737C27.7478 15.843 26.6703 15.2341 25.7105 16.1272C24.5311 17.2214 24.6413 19.103 25.4058 20.3851C26.3006 20.4744 27.2145 20.4929 28.1353 20.5022C36.4336 20.599 44.7523 20.3671 53.0562 20.3987C53.4616 20.3987 53.9566 20.5931 54.4048 20.4983C53.5396 16.6616 49.3325 14.1557 45.8931 16.7718C43.6868 12.6073 38.699 10.9563 34.9283 14.261Z"></path>
</svg>
