<svg xmlns="http://www.w3.org/2000/svg" fill="none" viewBox="0 0 80 80" height="80" width="80">
<path fill="#A4DBE8" d="M51.6749 25.5431L58.4563 24.3499L69.5519 13.345C70.2062 13.2291 72.8028 16.9587 73.2868 17.6883C84.5459 34.7138 81.3699 57.644 65.7625 70.7148C50.6049 83.4038 27.9502 83.0765 13.3174 69.8352L19.056 63.4601C18.3336 63.1464 17.0659 60.3304 16.5411 60.535C15.437 60.9645 10.9865 66.8079 10.1141 66.6306C-6.35203 48.1733 -2.18096 19.1611 18.763 6.04252C33.6548 -3.29184 53.6105 -1.71679 66.594 10.1404L51.6749 25.5431ZM39.6728 9.64944C31.4806 15.7723 30.4174 26.8727 37.4033 34.5501C39.8569 37.2434 40.7974 36.6843 43.0192 34.0388C45.7045 30.8341 47.6606 25.8294 47.2721 21.6225C47.0199 18.902 42.8489 9.35625 39.666 9.64944H39.6728ZM19.6763 28.6932C16.4321 29.1841 16.9432 31.0932 17.5362 33.7115C19.4854 42.3163 26.2327 47.7846 35.2223 47.3005C38.3643 47.1301 38.6914 46.4005 38.4324 43.3868C37.6487 34.3183 28.6727 27.3295 19.6763 28.7V28.6932ZM56.3571 29.0341C50.1346 29.7364 45.6091 32.8387 43.1283 38.5662C41.4994 42.3231 39.3866 47.6005 45.3978 47.6278C54.0603 47.6619 60.5827 42.5004 62.4433 34.107C63.6906 28.5091 61.4892 28.4545 56.3571 29.0341ZM20.3646 46.6937C15.8937 47.0346 16.9637 50.0688 17.9588 53.328C19.7717 59.2736 23.2953 63.126 29.3883 64.6533C31.2421 65.1169 36.9671 66.0851 38.1189 64.4624C39.3184 59.9759 36.0675 53.1711 32.4962 50.3279C29.6337 48.0505 23.97 46.4141 20.3646 46.6869V46.6937ZM41.9083 64.8715C44.3142 67.2784 54.0671 64.176 56.6025 62.2327C59.465 60.0441 63.5474 52.3597 62.8795 48.8278C62.2116 45.2959 52.9153 47.7164 50.5708 48.7255C47.4425 50.0688 44.9344 52.8507 43.4622 55.8848C42.6308 57.5963 40.4771 63.4328 41.9083 64.8715Z"></path>
</svg>