<svg xmlns="http://www.w3.org/2000/svg" fill="none" viewBox="0 0 80 80" height="80" width="80">
<path fill="#A4DBE8" d="M35.7728 0.17913C45.4793 -0.684253 54.9466 1.56331 62.9212 7.14104C63.4896 7.53864 66.4054 9.64233 66.597 9.93011C66.9323 10.437 66.6725 10.4441 66.4261 10.8002C64.7422 13.219 60.5182 15.8707 58.9232 18.2553C58.2661 19.2352 60.2447 22.2917 60.7923 22.1684C61.8333 21.9347 69.0753 13.1161 69.972 13.3422C89.4602 35.3174 79.2401 71.073 50.7162 78.7133C39.2094 81.7968 23.5955 79.4185 14.6283 71.1274C14.156 70.6957 13.1973 70.1064 13.5736 69.4418L20.8363 62.1303L18.3519 58.9028C17.8248 58.8891 12.1302 65.543 10.891 66.3998C9.7616 67.1809 8.2484 64.4813 7.57749 63.5629C-10.4186 39.0867 5.51017 2.85841 35.7728 0.17913ZM45.349 9.75237C43.9252 8.58749 42.1729 7.23014 40.2494 7.54534C41.4952 14.7949 42.584 23.0863 37.6761 29.2739C36.4508 30.8225 31.0637 35.9546 30.4271 31.8295C29.8868 28.351 31.4304 24.5165 32.0951 21.1537C14.5933 27.6919 12.1302 55.2235 29.8314 63.3637C44.1926 69.9692 60.9086 61.5956 62.2845 45.4106C63.3042 33.3918 54.5146 17.2486 45.349 9.75237ZM45.6371 35.2153C45.9246 34.6123 46.8556 30.7059 47.7181 31.3569C51.2365 40.1277 55.5008 56.4361 43.2962 60.4106C30.6464 64.5356 25.9023 51.0576 32.9457 42.2319C33.151 43.7804 33.6098 45.3909 35.0541 46.2748C39.695 44.3425 43.4671 39.7171 45.6371 35.2153Z"></path>
</svg>
