<svg xmlns="http://www.w3.org/2000/svg" fill="none" viewBox="0 0 80 80" height="80" width="80">
    <path fill="#A4DBE8" d="M35.701 0.178363C47.15 -0.835501 58.1227 2.48507 66.6602 10.1333L57.184 20.2447L60.5717 22.3337C63.4153 20.1358 66.4221 15.5632 69.218 13.6376C69.5717 13.3926 69.5989 13.1885 70.0887 13.4607C70.5377 13.7056 73.4697 17.9856 73.9595 18.7749C86.0207 38.1745 79.4493 63.9021 59.5649 74.9662C44.8574 83.1451 25.7826 81.2739 13.3949 69.8152L22.8778 59.6833L19.4833 57.608C16.6466 59.8058 13.6261 64.392 10.8302 66.3109C10.4697 66.5558 10.4629 66.7328 9.97308 66.481C8.44247 65.7053 3.93227 57.5808 3.11594 55.6551C-7.16977 31.2679 9.17036 2.53271 35.701 0.178363ZM59.5445 27.5867L59.184 26.7634L42.3268 16.1144C40.7146 14.9917 39.5717 15.2026 37.9187 15.9851C32.8438 18.3871 26.2996 23.4088 21.2792 26.5184C20.9391 26.7294 20.5581 26.8995 20.15 26.9199L40.0139 38.0996L59.5377 27.5935L59.5445 27.5867ZM38.4901 40.835L18.4561 29.9683V50.1775C18.4561 50.7015 19.5581 52.5659 20.184 52.8653L38.4969 64.2695V40.835H38.4901ZM41.5445 64.2695L59.8642 52.8721C60.2248 52.6407 61.2452 51.4704 61.2452 51.1914V29.9615L41.5445 40.9983V64.2627V64.2695Z"></path>
</svg>